<svg height="451pt" viewBox="-7 0 451 451.99012" width="451pt" xmlns="http://www.w3.org/2000/svg"><path d="m65.3125 22.351562c-1.945312 23.125-26.050781 26.777344-26.050781 26.777344 20.695312.976563 25.851562 28.121094 25.851562 28.121094.441407-19.355469 26.640625-28.40625 26.640625-28.40625-19.621094-1.171875-26.441406-26.492188-26.441406-26.492188zm0 0" fill="#d7e057"/><path d="m91.9375 45.851562c-17.210938-1.03125-23.664062-24.050781-23.726562-24.285156-.378907-1.402344-1.703126-2.300781-3.167969-2.203125-1.449219.136719-2.59375 1.285157-2.71875 2.734375-1.71875 20.429688-22.621094 23.929688-23.507813 24.066406-1.523437.230469-2.625 1.578126-2.546875 3.121094.082031 1.539063 1.316407 2.769532 2.859375 2.839844 18.050782.851562 22.996094 25.4375 23.039063 25.683594.277343 1.425781 1.519531 2.4375 2.949219 2.4375.082031 0 .167968-.003906.25-.011719 1.53125-.128906 2.714843-1.382813 2.75-2.917969.386718-17.019531 24.382812-25.554687 24.625-25.636718 1.351562-.46875 2.183593-1.828126 1.988281-3.246094-.199219-1.417969-1.363281-2.5-2.792969-2.582032zm-27.132812 20.6875c-2.710938-6.261718-7.414063-13.8125-15.171876-17.753906 5.859376-2.808594 12.816407-7.824218 16.402344-16.542968 3.101563 6.140624 8.398438 13.761718 16.667969 17.445312-6.015625 3.277344-13.847656 8.808594-17.898437 16.851562zm0 0" fill="#3a312a"/><path d="m21.917969 56.3125c-1.378907 16.359375-18.425781 18.941406-18.425781 18.941406 14.636718.6875 18.285156 19.886719 18.285156 19.886719.3125-13.6875 18.84375-20.089844 18.84375-20.089844-13.882813-.832031-18.703125-18.738281-18.703125-18.738281zm0 0" fill="#d7e057"/><path d="m40.800781 72.054688c-11.535156-.6875-15.945312-16.371094-15.988281-16.527344-.378906-1.40625-1.71875-2.3125-3.164062-2.207032-1.449219.132813-2.597657 1.289063-2.722657 2.738282-1.15625 13.738281-15.289062 16.132812-15.878906 16.226562-1.527344.230469-2.628906 1.582032-2.546875 3.121094.078125 1.542969 1.3125 2.769531 2.855469 2.84375 12.066406.566406 15.445312 17.289062 15.476562 17.453125.269531 1.425781 1.515625 2.4375 2.945313 2.4375.082031 0 .164062-.003906.25-.007813 1.53125-.125 2.714844-1.386718 2.753906-2.921874.257812-11.417969 16.660156-17.269532 16.820312-17.324219 1.355469-.46875 2.1875-1.828125 1.992188-3.246094s-1.367188-2.5-2.792969-2.585937zm-19.171875 13.589843c-1.847656-3.769531-4.679687-7.890625-8.890625-10.554687 3.710938-2.085938 7.394531-5.261719 9.738281-9.835938 2.117188 3.75 5.308594 7.910156 9.882813 10.449219-3.699219 2.199219-7.976563 5.480469-10.730469 9.941406zm0 0" fill="#3a312a"/><path d="m21.917969 2.996094c-1.378907 16.359375-18.425781 18.941406-18.425781 18.941406 14.636718.6875 18.285156 19.886719 18.285156 19.886719.3125-13.6875 18.84375-20.089844 18.84375-20.089844-13.882813-.828125-18.703125-18.738281-18.703125-18.738281zm0 0" fill="#d7e057"/><path d="m40.800781 18.742188c-11.535156-.691407-15.945312-16.371094-15.988281-16.53125-.378906-1.402344-1.71875-2.3085942-3.164062-2.2031255-1.449219.1289065-2.597657 1.2851565-2.722657 2.7343755-1.15625 13.742187-15.289062 16.132812-15.878906 16.226562-1.527344.230469-2.628906 1.582031-2.546875 3.121094.078125 1.539062 1.3125 2.769531 2.855469 2.839844 12.066406.570312 15.445312 17.289062 15.476562 17.453124.269531 1.425782 1.515625 2.441407 2.945313 2.441407.082031 0 .164062-.003907.25-.011719 1.53125-.125 2.714844-1.382812 2.753906-2.921875.257812-11.414063 16.660156-17.265625 16.820312-17.320313 1.355469-.46875 2.1875-1.828124 1.992188-3.246093-.195312-1.414063-1.367188-2.496094-2.792969-2.582031zm-19.171875 13.589843c-1.847656-3.773437-4.675781-7.894531-8.890625-10.558593 3.710938-2.082032 7.394531-5.261719 9.738281-9.832032 2.117188 3.746094 5.3125 7.90625 9.882813 10.445313-3.699219 2.203125-7.976563 5.480469-10.730469 9.945312zm0 0" fill="#3a312a"/><path d="m326.59375 151.613281h-234.519531c-9.808594 0-17.757813 7.949219-17.757813 17.757813v158.925781c0 45.203125 36.644532 81.84375 81.84375 81.84375h106.351563c45.199219 0 81.839843-36.640625 81.839843-81.84375v-158.925781c0-9.808594-7.949218-17.757813-17.757812-17.757813zm0 0" fill="#d7e057"/><path d="m326.59375 148.613281h-234.515625c-11.449219 0-20.761719 9.3125-20.761719 20.757813v26.480468c0 1.65625 1.34375 3 3 3s3-1.34375 3-3v-26.480468c0-8.136719 6.621094-14.757813 14.761719-14.757813h234.515625c8.140625 0 14.761719 6.621094 14.761719 14.757813v158.929687c0 43.472657-35.371094 78.839844-78.84375 78.839844h-106.351563c-43.472656 0-78.84375-35.367187-78.84375-78.839844v-102.929687c0-1.65625-1.34375-3-3-3s-3 1.34375-3 3v102.929687c0 46.78125 38.0625 84.839844 84.84375 84.839844h106.351563c46.785156 0 84.84375-38.058594 84.84375-84.839844v-158.929687c-.003907-11.445313-9.3125-20.757813-20.761719-20.757813zm0 0" fill="#3a312a"/><path d="m35.023438 410.140625c0 21.457031 17.394531 38.851563 38.851562 38.851563h270.921875c21.453125 0 38.851563-17.394532 38.851563-38.851563zm0 0" fill="#87796f"/><path d="m383.648438 407.140625h-348.628907c-1.652343 0-3 1.34375-3 3 0 23.074219 18.777344 41.847656 41.855469 41.847656h178.699219c1.65625 0 3-1.34375 3-3 0-1.652343-1.34375-3-3-3h-178.699219c-18.757812 0-34.203125-14.476562-35.726562-32.847656h342.375c-1.527344 18.371094-16.964844 32.847656-35.722657 32.847656h-63.703125c-1.65625 0-3 1.347657-3 3 0 1.65625 1.34375 3 3 3h63.703125c23.074219 0 41.847657-18.773437 41.847657-41.847656 0-1.65625-1.34375-3-3-3zm0 0" fill="#3a312a"/><path d="m346.894531 188.363281c-.859375 0-1.699219.019531-2.539062.039063v28.023437c.839843-.042969 1.679687-.0625 2.539062-.0625 32.539063 0 59.019531 26.480469 59.019531 59.019531 0 32.519532-26.480468 59-59.019531 59-.917969 0-1.839843-.019531-2.757812-.078124-.703125 9.738281-3.121094 19.019531-6.960938 27.519531 3.179688.378906 6.441407.558593 9.71875.558593 47.980469 0 87.019531-39.039062 87.019531-87 0-47.980468-39.039062-87.019531-87.019531-87.019531zm0 0" fill="#d7e057"/><g fill="#3a312a"><path d="m346.894531 185.363281c-.882812 0-1.746093.019531-2.609375.039063-1.628906.042968-2.929687 1.375-2.929687 3v28.023437c0 .820313.335937 1.605469.933593 2.171875.59375.570313 1.382813.867188 2.210938.824219.792969-.039063 1.582031-.054687 2.394531-.054687 30.886719 0 56.019531 25.128906 56.019531 56.019531 0 30.878906-25.132812 56-56.019531 56-.855469 0-1.710937-.019531-2.5625-.074219-1.644531-.121094-3.074219 1.132812-3.191406 2.78125-.660156 9.203125-2.914063 18.121094-6.703125 26.496094-.390625.871094-.347656 1.878906.121094 2.710937.472656.832031 1.308594 1.390625 2.257812 1.503907 3.226563.386718 6.617188.582031 10.078125.582031 49.636719 0 90.019531-40.375 90.019531-90 0-49.640625-40.382812-90.023438-90.019531-90.023438zm0 174.019531c-1.816406 0-3.609375-.058593-5.359375-.171874 2.753906-7.003907 4.542969-14.316407 5.339844-21.828126h.019531c34.199219 0 62.019531-27.8125 62.019531-62 0-34.042968-27.570312-61.769531-61.558593-62.019531v-22c46.121093.246094 83.558593 37.84375 83.558593 84.019531 0 46.320313-37.691406 84-84.019531 84zm0 0"/><path d="m152.410156 121.621094c-4.726562-4.730469-7.320312-11.015625-7.292968-17.703125.023437-6.691407 2.664062-12.960938 7.425781-17.652344 5.878906-5.796875 9.15625-13.539063 9.214843-21.792969.058594-8.257812-3.097656-16.042968-8.894531-21.925781l-.871093-.878906c-9.570313-9.710938-9.511719-25.457031.128906-35.101563l.140625-.140625c1.171875-1.171875 1.171875-3.070312 0-4.242187s-3.070313-1.171875-4.242188 0l-.140625.140625c-11.964844 11.964843-12.035156 31.503906-.15625 43.554687l.867188.878906c4.671875 4.742188 7.214844 11.015626 7.167968 17.667969-.046874 6.65625-2.6875 12.890625-7.425781 17.5625-5.914062 5.824219-9.1875 13.605469-9.214843 21.902344-.03125 8.296875 3.183593 16.101563 9.050781 21.96875l.492187.492187c.585938.585938 1.351563.875 2.121094.875s1.535156-.289062 2.121094-.875c1.171875-1.171874 1.171875-3.070312 0-4.242187zm0 0"/><path d="m192.664062 121.621094c-4.726562-4.730469-7.320312-11.015625-7.292968-17.703125.023437-6.691407 2.664062-12.960938 7.425781-17.652344 12.140625-11.964844 12.285156-31.574219.320313-43.71875l-.871094-.875c-9.570313-9.714844-9.511719-25.460937.128906-35.101563l.140625-.140624c1.171875-1.171876 1.171875-3.070313 0-4.242188s-3.070313-1.171875-4.242187 0l-.140626.140625c-11.964843 11.960937-12.035156 31.5-.15625 43.554687l.867188.878907c4.667969 4.738281 7.214844 11.015625 7.167969 17.667969-.046875 6.652343-2.6875 12.890624-7.425781 17.558593-5.914063 5.824219-9.1875 13.605469-9.214844 21.902344-.03125 8.300781 3.183594 16.101563 9.050781 21.972656l.492187.488281c.585938.585938 1.351563.878907 2.121094.878907.769532 0 1.535156-.292969 2.121094-.878907 1.171875-1.171874 1.171875-3.070312 0-4.242187zm0 0"/><path d="m230.242188 121.621094c-4.726563-4.730469-7.320313-11.019532-7.292969-17.707032.027343-6.691406 2.664062-12.957031 7.425781-17.648437 12.140625-11.964844 12.285156-31.574219.316406-43.71875l-.867187-.878906c-9.570313-9.710938-9.511719-25.457031.144531-35.113281l.140625-.140626c1.160156-1.183593 1.148437-3.082031-.03125-4.246093-1.183594-1.164063-3.078125-1.148438-4.242187.03125l-.125.125c-11.960938 11.964843-12.035157 31.503906-.15625 43.558593l.867187.875c4.671875 4.742188 7.214844 11.015626 7.167969 17.667969-.046875 6.65625-2.6875 12.890625-7.425782 17.5625-5.914062 5.824219-9.183593 13.601563-9.214843 21.898438-.03125 8.300781 3.183593 16.105469 9.054687 21.976562l.492188.492188c.585937.582031 1.351562.875 2.121094.875.769531 0 1.539062-.292969 2.121093-.882813 1.171875-1.171875 1.167969-3.074218-.007812-4.242187zm0 0"/><path d="m270.5 121.621094c-4.730469-4.730469-7.320312-11.019532-7.296875-17.707032.027344-6.691406 2.664063-12.957031 7.425781-17.648437 12.140625-11.964844 12.285156-31.574219.320313-43.71875l-.871094-.878906c-9.570313-9.710938-9.511719-25.457031.144531-35.113281l.140625-.140626c1.160157-1.183593 1.148438-3.082031-.03125-4.246093-1.183593-1.164063-3.078125-1.148438-4.242187.03125l-.125.125c-11.960938 11.964843-12.035156 31.503906-.15625 43.558593l.867187.875c9.640625 9.785157 9.527344 25.589844-.257812 35.230469-5.914063 5.824219-9.183594 13.601563-9.214844 21.898438-.03125 8.300781 3.183594 16.105469 9.054687 21.976562l.492188.492188c.585938.582031 1.351562.875 2.121094.875.769531 0 1.539062-.292969 2.121094-.882813 1.171874-1.171875 1.167968-3.074218-.007813-4.242187zm0 0"/></g><path d="m326.59375 154.613281h-27.378906c8.140625 0 14.761718 6.617188 14.761718 14.757813v158.921875c0 2.4375-.121093 4.859375-.339843 7.238281-.042969.421875-.082031.839844-.121094 1.242188-.121094 1.039062-.242187 2.058593-.398437 3.078124-.023438.179688-.042969.359376-.0625.5625-.597657 3.859376-1.480469 7.617188-2.621094 11.257813-.019532.058594-.019532.101563-.039063.140625-.359375 1.140625-.738281 2.257812-1.140625 3.359375-.058594.179687-.136718.378906-.199218.558594-.359376.960937-.738282 1.902343-1.121094 2.839843-.117188.28125-.238282.542969-.359375.820313-12.097657 28.0625-40 47.742187-72.4375 47.742187h27.378906c32.441406 0 60.339844-19.679687 72.441406-47.742187.117188-.277344.238281-.539063.339844-.820313.398437-.9375.777344-1.878906 1.117187-2.839843.082032-.179688.140626-.378907.222657-.558594.398437-1.101563.777343-2.21875 1.136719-3.359375 0-.039062.023437-.082031.042968-.140625 1.140625-3.640625 2-7.398437 2.597656-11.257813.042969-.203124.0625-.382812.082032-.5625.160156-1.019531.277344-2.039062.398437-3.078124.039063-.402344.082031-.820313.121094-1.242188.21875-2.378906.339844-4.800781.339844-7.238281v-158.921875c0-8.140625-6.621094-14.757813-14.761719-14.757813zm0 0" fill="#b9c239"/><path d="m349.125 413.132812v.007813c-1.523438 18.359375-16.929688 32.820313-35.660156 32.851563-.019532 0-.039063 0-.058594 0h31.398438c18.761718 0 34.199218-14.476563 35.71875-32.859376zm0 0" fill="#695b51"/><path d="m188.105469 213.277344-13.347657-18.546875c-2.433593-3.382813-6.347656-5.386719-10.515624-5.386719h-39.632813c-4.089844 0-7.9375 1.929688-10.382813 5.207031l-13.9375 18.671875c-1.671874 2.238282-2.574218 4.957032-2.574218 7.75v75.949219c0 7.160156 5.800781 12.960937 12.957031 12.960937h66.914063c7.15625 0 12.960937-5.800781 12.960937-12.960937v-76.074219c0-2.71875-.855469-5.367187-2.441406-7.570312zm-43.976563 15.835937c-5.246094 0-9.5-4.253906-9.5-9.5 0-5.25 4.253906-9.5 9.5-9.5s9.5 4.25 9.5 9.5c0 5.246094-4.253906 9.5-9.5 9.5zm0 0" fill="#f16c7a"/><path d="m144.128906 207.113281c-6.890625 0-12.5 5.605469-12.5 12.5 0 6.890625 5.609375 12.5 12.5 12.5s12.5-5.609375 12.5-12.5c0-6.894531-5.609375-12.5-12.5-12.5zm0 19c-3.582031 0-6.5-2.917969-6.5-6.5 0-3.585937 2.917969-6.5 6.5-6.5 3.585938 0 6.5 2.914063 6.5 6.5 0 3.582031-2.914062 6.5-6.5 6.5zm46.414063-14.585937-13.351563-18.546875c-2.984375-4.15625-7.828125-6.636719-12.953125-6.636719h-39.628906c-5.011719 0-9.792969 2.394531-12.789063 6.414062l-13.9375 18.671876c-2.042968 2.734374-3.171874 6.125-3.171874 9.546874v75.949219c0 8.800781 7.160156 15.960938 15.957031 15.960938h66.917969c8.800781 0 15.957031-7.160157 15.957031-15.960938v-76.074219c.003906-3.371093-1.035157-6.589843-3-9.324218zm-2.996094 85.394531c0 5.492187-4.464844 9.960937-9.957031 9.960937h-66.917969c-5.492187 0-9.957031-4.464843-9.957031-9.960937v-75.949219c0-2.132812.703125-4.25 1.976562-5.957031l13.9375-18.671875c1.871094-2.507812 4.855469-4.003906 7.980469-4.003906h39.628906c3.195313 0 6.21875 1.546875 8.082031 4.140625l13.347657 18.546875c1.230469 1.707031 1.878906 3.714844 1.878906 5.816406zm0 0" fill="#3a312a"/><path d="m144.128906 148.613281c-1.65625 0-3 1.34375-3 3v66c0 1.65625 1.34375 3 3 3s3-1.34375 3-3v-66c0-1.660156-1.34375-3-3-3zm0 0" fill="#3a312a"/></svg>