<svg height="453pt" viewBox="0 -1 453.362 453" width="453pt" xmlns="http://www.w3.org/2000/svg"><path d="m398.863281 22.535156c-1.949219 23.128906-26.050781 26.78125-26.050781 26.78125 20.695312.972656 25.851562 28.117188 25.851562 28.117188.441407-19.351563 26.640626-28.402344 26.640626-28.402344-19.625-1.175781-26.441407-26.496094-26.441407-26.496094zm0 0" fill="#d7e057"/><path d="m425.484375 46.035156c-17.207031-1.027344-23.664063-24.046875-23.722656-24.28125-.382813-1.40625-1.730469-2.324218-3.167969-2.203125-1.449219.132813-2.597656 1.285157-2.71875 2.734375-1.71875 20.429688-22.625 23.925782-23.507812 24.0625-1.527344.230469-2.628907 1.582032-2.546876 3.121094.078126 1.542969 1.3125 2.769531 2.855469 2.839844 18.054688.855468 22.996094 25.441406 23.042969 25.691406.273438 1.421875 1.519531 2.433594 2.945312 2.433594.082032 0 .167969-.003906.25-.011719 1.53125-.128906 2.714844-1.386719 2.75-2.917969.390626-17.019531 24.386719-25.554687 24.628907-25.640625 1.347656-.46875 2.183593-1.828125 1.988281-3.242187-.199219-1.417969-1.367188-2.5-2.796875-2.585938zm-27.128906 20.691406c-2.714844-6.261718-7.417969-13.816406-15.175781-17.753906 5.863281-2.808594 12.816406-7.828125 16.40625-16.542968 3.101562 6.140624 8.394531 13.757812 16.667968 17.445312-6.015625 3.277344-13.847656 8.808594-17.898437 16.851562zm0 0" fill="#3a312a"/><path d="m355.464844 56.5c-1.375 16.355469-18.425782 18.941406-18.425782 18.941406 14.636719.6875 18.285157 19.886719 18.285157 19.886719.3125-13.6875 18.84375-20.089844 18.84375-20.089844-13.878907-.832031-18.703125-18.738281-18.703125-18.738281zm0 0" fill="#d7e057"/><path d="m374.347656 72.242188c-11.53125-.691407-15.945312-16.371094-15.984375-16.53125-.382812-1.402344-1.707031-2.339844-3.164062-2.203126-1.453125.128907-2.597657 1.285157-2.722657 2.734376-1.15625 13.742187-15.289062 16.132812-15.882812 16.226562-1.527344.230469-2.625 1.582031-2.546875 3.121094.082031 1.542968 1.316406 2.769531 2.855469 2.84375 12.070312.566406 15.449218 17.289062 15.476562 17.453125.269532 1.425781 1.519532 2.4375 2.945313 2.4375.082031 0 .164062-.003907.25-.007813 1.53125-.125 2.714843-1.386718 2.75-2.921875.261719-11.417969 16.664062-17.265625 16.824219-17.324219 1.355468-.464843 2.191406-1.824218 1.992187-3.242187-.195313-1.417969-1.363281-2.503906-2.792969-2.585937zm-19.167968 13.589843c-1.847657-3.773437-4.679688-7.894531-8.894532-10.558593 3.710938-2.082032 7.394532-5.261719 9.742188-9.832032 2.113281 3.746094 5.308594 7.90625 9.882812 10.445313-3.699218 2.203125-7.976562 5.480469-10.730468 9.945312zm0 0" fill="#3a312a"/><path d="m355.464844 3.183594c-1.375 16.355468-18.425782 18.941406-18.425782 18.941406 14.636719.6875 18.285157 19.886719 18.285157 19.886719.3125-13.6875 18.84375-20.089844 18.84375-20.089844-13.878907-.832031-18.703125-18.738281-18.703125-18.738281zm0 0" fill="#d7e057"/><g fill="#3a312a"><path d="m374.347656 18.929688c-11.53125-.695313-15.945312-16.375-15.988281-16.535157-.378906-1.402343-1.703125-2.3281248-3.164063-2.203125-1.453124.128906-2.597656 1.285156-2.71875 2.738282-1.160156 13.742187-15.292968 16.128906-15.882812 16.222656-1.527344.234375-2.628906 1.582031-2.546875 3.125.078125 1.539062 1.3125 2.769531 2.851563 2.839844 12.070312.570312 15.449218 17.289062 15.480468 17.453124.269532 1.429688 1.515625 2.441407 2.945313 2.441407.082031 0 .164062-.003907.25-.007813 1.53125-.128906 2.714843-1.386718 2.75-2.921875.261719-11.417969 16.664062-17.269531 16.824219-17.324219 1.355468-.464843 2.191406-1.824218 1.992187-3.242187-.195313-1.417969-1.363281-2.5-2.792969-2.585937zm-19.167968 13.585937c-1.847657-3.769531-4.679688-7.894531-8.894532-10.558594 3.710938-2.082031 7.394532-5.257812 9.742188-9.832031 2.113281 3.746094 5.308594 7.910156 9.882812 10.449219-3.699218 2.199219-7.976562 5.476562-10.730468 9.941406zm0 0"/><path d="m119.753906 66.132812-.945312-.808593c-4.960938-4.269531-7.679688-9.875-7.660156-15.796875.023437-5.929688 2.792968-11.535156 7.8125-15.792969l.152343-.128906c1.257813-1.078125 1.402344-2.972657.320313-4.230469-1.078125-1.257812-2.972656-1.398438-4.230469-.320312l-.136719.121093c-6.367187 5.398438-9.890625 12.621094-9.921875 20.335938-.027343 7.703125 3.433594 14.933593 9.75 20.367187l.941407.808594c4.984374 4.289062 7.703124 9.925781 7.660156 15.867188-.042969 5.96875-2.863282 11.589843-7.941406 15.832031-1.273438 1.0625-1.441407 2.957031-.378907 4.226562.59375.707031 1.445313 1.078125 2.304688 1.078125.675781 0 1.359375-.230468 1.921875-.699218 6.453125-5.390626 10.035156-12.632813 10.09375-20.390626.058594-7.742187-3.402344-15.007812-9.742188-20.46875zm0 0"/><path d="m163.378906 66.132812-.941406-.808593c-4.960938-4.269531-7.679688-9.875-7.660156-15.796875.023437-5.929688 2.792968-11.535156 7.808594-15.789063l.152343-.128906c1.257813-1.074219 1.410157-2.96875.332031-4.226563-1.074218-1.261718-2.96875-1.410156-4.226562-.335937l-.148438.128906c-6.367187 5.394531-9.890624 12.621094-9.917968 20.332031-.027344 7.703126 3.433594 14.9375 9.75 20.371094l.941406.808594c4.980469 4.289062 7.703125 9.921875 7.660156 15.867188-.042968 5.964843-2.863281 11.589843-7.941406 15.832031-1.273438 1.0625-1.441406 2.957031-.378906 4.226562.589844.707031 1.445312 1.074219 2.304687 1.074219.675781 0 1.359375-.226562 1.921875-.699219 6.449219-5.390625 10.035156-12.632812 10.09375-20.390625.054688-7.738281-3.40625-15.003906-9.75-20.464844zm0 0"/><path d="m204.105469 66.132812-.945313-.808593c-4.960937-4.269531-7.679687-9.875-7.65625-15.796875.019532-5.929688 2.789063-11.535156 7.804688-15.789063l.152344-.128906c1.261718-1.074219 1.410156-2.96875.335937-4.226563-1.078125-1.261718-2.972656-1.410156-4.230469-.335937l-.144531.128906c-6.371094 5.394531-9.890625 12.621094-9.917969 20.332031-.03125 7.703126 3.433594 14.9375 9.742188 20.371094l.945312.808594c4.984375 4.289062 7.703125 9.921875 7.660156 15.867188-.042968 5.964843-2.863281 11.589843-7.941406 15.832031-1.273437 1.0625-1.441406 2.957031-.378906 4.226562.59375.707031 1.445312 1.074219 2.304688 1.074219.679687 0 1.359374-.226562 1.921874-.699219 6.453126-5.390625 10.039063-12.632812 10.09375-20.390625.054688-7.738281-3.40625-15.003906-9.746093-20.464844zm0 0"/><path d="m247.730469 66.132812-.941407-.808593c-4.960937-4.269531-7.683593-9.875-7.660156-15.796875.019532-5.929688 2.792969-11.535156 7.8125-15.792969l.152344-.128906c1.257812-1.078125 1.398438-2.972657.320312-4.230469-1.078124-1.257812-2.972656-1.398438-4.230468-.320312l-.136719.121093c-6.367187 5.398438-9.894531 12.621094-9.917969 20.335938-.027344 7.703125 3.433594 14.933593 9.746094 20.367187l.941406.808594c4.984375 4.289062 7.707032 9.925781 7.660156 15.867188-.039062 5.96875-2.863281 11.589843-7.941406 15.832031-1.269531 1.0625-1.4375 2.957031-.378906 4.226562.59375.707031 1.449219 1.078125 2.304688 1.078125.679687 0 1.359374-.230468 1.921874-.699218 6.453126-5.390626 10.039063-12.632813 10.09375-20.390626.058594-7.742187-3.402343-15.007812-9.746093-20.46875zm0 0"/></g><path d="m396.734375 156.074219c-10.859375-2.277344-23-3.71875-36.277344-4.578125v4.539062c0 7.261719-2.582031 13.921875-6.859375 19.101563 14.316406.78125 27.277344 2.121093 38.160156 4.417969 30.476563 6.460937 34.597657 18.121093 34.597657 28.679687 0 55.640625-62.179688 100.902344-138.578125 100.902344-5.402344 0-10.742188-.21875-15.980469-.679688-.019531 9.238281-4.222656 17.480469-10.800781 22.980469 8.699218 1.117188 17.660156 1.699219 26.78125 1.699219 89.636718 0 162.578125-56.039063 162.578125-124.902344 0-27.058594-18.039063-44.617187-53.621094-52.160156zm0 0" fill="#f16c7a"/><path d="m397.359375 153.140625h-.003906c-10.476563-2.203125-22.484375-3.71875-36.707031-4.636719-.820313-.046875-1.636719.238282-2.242188.800782-.605469.570312-.949219 1.363281-.949219 2.191406v4.539062c0 6.265625-2.191406 12.371094-6.171875 17.191406-.71875.875-.886718 2.078126-.433594 3.117188.457032 1.039062 1.453126 1.726562 2.585938 1.792969 15.480469.839843 27.8125 2.265625 37.699219 4.359375 28.320312 6 32.222656 15.921875 32.222656 25.742187 0 53.984375-60.820313 97.902344-135.578125 97.902344-5.378906 0-10.664062-.222656-15.71875-.671875-.839844-.074219-1.664062.210938-2.285156.773438-.621094.566406-.972656 1.371093-.976563 2.210937-.015625 7.992187-3.5625 15.53125-9.722656 20.683594-.917969.765625-1.289063 2-.957031 3.140625.335937 1.144531 1.316406 1.984375 2.496094 2.136718 8.886718 1.144532 18.027343 1.722657 27.164062 1.722657 91.300781 0 165.582031-57.375 165.582031-127.898438-.007812-28.6875-18.847656-47.222656-56.003906-55.097656zm-109.582031 176.996094c-6.816406 0-13.632813-.332031-20.335938-.992188 4.042969-4.980469 6.546875-11.039062 7.191406-17.457031 4.273438.296875 8.679688.449219 13.144532.449219 78.066406 0 141.578125-46.609375 141.578125-103.898438 0-11.070312-4.203125-24.671875-36.976563-31.617187-9.023437-1.90625-19.953125-3.273438-33.296875-4.160156 2.847657-4.96875 4.375-10.640626 4.375-16.425782v-1.324218c12.542969.914062 23.253907 2.324218 32.660157 4.300781 34 7.203125 51.242187 23.765625 51.242187 49.222656-.003906 67.21875-71.589844 121.902344-159.582031 121.902344zm0 0" fill="#3a312a"/><path d="m31.316406 388.894531c0 16.367188 13.269532 29.636719 29.636719 29.636719h241.554687c16.367188 0 29.632813-13.269531 29.632813-29.636719zm0 0" fill="#87796f"/><path d="m332.140625 385.894531h-228.910156c-1.65625 0-3 1.34375-3 3s1.34375 3 3 3h225.742187c-1.496094 13.28125-12.792968 23.636719-26.46875 23.636719h-241.550781c-13.671875 0-24.972656-10.355469-26.46875-23.636719h40.96875c1.660156 0 3-1.34375 3-3s-1.339844-3-3-3h-44.136719c-1.65625 0-3 1.34375-3 3 0 17.996094 14.640625 32.636719 32.636719 32.636719h241.550781c17.992188 0 32.636719-14.640625 32.636719-32.636719 0-1.65625-1.34375-3-3-3zm0 0" fill="#3a312a"/><path d="m105.59375 418.53125v18.007812c0 6.417969 5.207031 11.625 11.625 11.625h129.015625c6.421875 0 11.628906-5.207031 11.628906-11.625v-18.007812zm0 0" fill="#87796f"/><path d="m257.863281 415.53125h-152.269531c-1.65625 0-3 1.34375-3 3v18.007812c0 8.066407 6.5625 14.628907 14.625 14.628907h129.015625c8.066406 0 14.628906-6.5625 14.628906-14.628907v-18.007812c0-1.65625-1.34375-3-3-3zm-3 21.007812c0 4.757813-3.871093 8.628907-8.628906 8.628907h-129.015625c-4.753906 0-8.625-3.871094-8.625-8.628907v-15.007812h146.269531zm0 0" fill="#3a312a"/><path d="m3 135.195312v20.84375c0 16.535157 13.40625 29.941407 29.941406 29.941407h297.574219c16.535156 0 29.941406-13.40625 29.941406-29.941407v-20.84375zm0 0" fill="#d7e057"/><path d="m360.457031 132.195312h-89.777343c-1.660157 0-3 1.34375-3 3s1.339843 3 3 3h86.777343v17.84375c0 14.855469-12.085937 26.941407-26.941406 26.941407h-297.574219c-14.855468 0-26.945312-12.085938-26.945312-26.941407v-17.84375h236.675781c1.65625 0 3-1.34375 3-3s-1.34375-3-3-3h-239.671875c-1.65625 0-3 1.34375-3 3v20.84375c0 18.164063 14.777344 32.941407 32.945312 32.941407h297.570313c18.164063 0 32.941406-14.777344 32.941406-32.941407v-20.84375c0-1.65625-1.34375-3-3-3zm0 0" fill="#3a312a"/><path d="m34.105469 185.980469v20.84375c0 16.539062 13.40625 29.941406 29.941406 29.941406h235.828125c16.539062 0 29.941406-13.40625 29.941406-29.941406v-20.84375zm0 0" fill="#d7e057"/><path d="m329.816406 182.980469h-295.714844c-1.65625 0-3 1.34375-3 3v20.84375c0 18.164062 14.777344 32.945312 32.945313 32.945312h235.828125c18.164062 0 32.941406-14.78125 32.941406-32.945312v-20.84375c0-1.65625-1.339844-3-3-3zm-3 23.84375c0 14.859375-12.085937 26.945312-26.941406 26.945312h-235.828125c-14.855469 0-26.945313-12.085937-26.945313-26.945312v-17.84375h289.714844zm0 0" fill="#3a312a"/><path d="m62.886719 236.765625v20.84375c0 16.539063 13.40625 29.941406 29.941406 29.941406h178.265625c16.535156 0 29.941406-13.40625 29.941406-29.941406v-20.84375zm0 0" fill="#d7e057"/><path d="m301.035156 233.769531h-238.148437c-1.660157 0-3 1.34375-3 3v20.84375c0 18.164063 14.777343 32.941407 32.941406 32.941407h178.265625c18.164062 0 32.941406-14.777344 32.941406-32.941407v-20.84375c0-1.65625-1.34375-3-3-3zm-3 23.84375c0 14.855469-12.085937 26.941407-26.941406 26.941407h-178.265625c-14.855469 0-26.945313-12.085938-26.945313-26.941407v-17.84375h232.152344zm0 0" fill="#3a312a"/><path d="m92.132812 287.554688v20.84375c0 16.535156 13.40625 29.941406 29.941407 29.941406h119.773437c16.535156 0 29.941406-13.40625 29.941406-29.941406v-20.84375zm0 0" fill="#d7e057"/><path d="m271.789062 284.554688h-179.65625c-1.660156 0-3 1.34375-3 3v20.84375c0 18.164062 14.777344 32.945312 32.941407 32.945312h119.773437c18.164063 0 32.941406-14.78125 32.941406-32.945312v-20.84375c0-1.65625-1.34375-3-3-3zm-3 23.84375c0 14.859374-12.085937 26.945312-26.941406 26.945312h-119.773437c-14.855469 0-26.941407-12.085938-26.941407-26.945312v-17.84375h173.65625zm0 0" fill="#3a312a"/><path d="m121.378906 338.339844v20.84375c0 16.539062 13.40625 29.941406 29.941406 29.941406h61.742188c16.539062 0 29.945312-13.40625 29.945312-29.941406v-20.84375zm0 0" fill="#d7e057"/><path d="m243.007812 335.34375h-121.628906c-1.660156 0-3 1.34375-3 3v20.84375c0 18.164062 14.777344 32.941406 32.941406 32.941406h61.742188c18.167969 0 32.945312-14.777344 32.945312-32.941406v-20.84375c0-1.65625-1.34375-3-3-3zm-3 23.84375c0 14.855469-12.085937 26.941406-26.945312 26.941406h-61.742188c-14.855468 0-26.941406-12.085937-26.941406-26.941406v-17.84375h115.628906zm0 0" fill="#3a312a"/><path d="m325.597656 138.195312c.378906 0 .699219.300782.699219.699219v16.441407c0 15.261718-12.382813 27.640624-27.640625 27.640624h31.859375c14.859375 0 26.941406-12.082031 26.941406-26.941406v-17.839844zm0 0" fill="#b9bc39"/><path d="m294.957031 188.976562c.378907 0 .699219.320313.699219.699219v16.460938c0 15.257812-12.378906 27.640625-27.640625 27.640625h31.859375c14.859375 0 26.941406-12.101563 26.941406-26.960938v-17.839844zm0 0" fill="#b9bc39"/><path d="m266.175781 239.777344c.378907 0 .699219.296875.699219.679687v16.460938c0 15.257812-12.378906 27.636719-27.640625 27.636719h31.863281c14.859375 0 26.9375-12.078126 26.9375-26.9375v-17.839844zm0 0" fill="#b9bc39"/><path d="m236.9375 290.554688c.378906 0 .679688.320312.679688.703124v16.4375c0 15.28125-12.359376 27.640626-27.640626 27.640626h31.859376c14.859374 0 26.960937-12.078126 26.960937-26.941407v-17.839843zm0 0" fill="#b9bc39"/><path d="m208.136719 341.335938c.398437 0 .699219.320312.699219.699218v16.460938c0 15.261718-12.378907 27.640625-27.640626 27.640625h31.859376c14.859374 0 26.941406-12.101563 26.941406-26.960938v-17.839843zm0 0" fill="#b9bc39"/><path d="m306.335938 391.894531c-1.5 13.28125-12.800782 23.640625-26.480469 23.640625h22.640625c13.679687 0 24.980468-10.359375 26.480468-23.640625zm0 0" fill="#6b5b51"/><path d="m232.214844 421.535156v15c0 4.761719-3.859375 8.621094-8.617188 8.621094h22.636719c4.761719 0 8.621094-3.859375 8.621094-8.621094v-15zm0 0" fill="#6b5b51"/></svg>