<svg height="451pt" viewBox="-4 0 451 451.99388" width="451pt" xmlns="http://www.w3.org/2000/svg"><path d="m371.144531 189.457031c-.980469 9.417969-2.339843 18.679688-4 27.777344 26.242188 5.941406 45.902344 29.480469 45.902344 57.5 0 32.523437-26.460937 58.980469-58.980469 58.980469-9.421875 0-18.339844-2.21875-26.261718-6.199219-4.621094 8.378906-9.480469 16.378906-14.539063 24 12.179687 6.519531 26.058594 10.199219 40.800781 10.199219 47.957032 0 86.980469-39.019532 86.980469-86.980469 0-42.117187-30.082031-77.339844-69.902344-85.277344zm0 0" fill="#8ac6dd"/><path d="m371.730469 186.515625c-.824219-.167969-1.683594.023437-2.367188.527344-.679687.5-1.117187 1.265625-1.203125 2.105469-.929687 8.945312-2.265625 18.214843-3.96875 27.550781-.289062 1.582031.722656 3.109375 2.292969 3.464843 25.242187 5.714844 43.5625 28.664063 43.5625 54.574219 0 30.867188-25.117187 55.980469-55.980469 55.980469-8.765625 0-17.148437-1.980469-24.914062-5.882812-1.4375-.71875-3.199219-.175782-3.972656 1.234374-4.496094 8.15625-9.34375 16.160157-14.410157 23.789063-.46875.703125-.617187 1.570313-.414062 2.390625.210937.820312.75 1.515625 1.496093 1.910156 12.898438 6.90625 27.496094 10.558594 42.214844 10.558594 49.613282 0 89.980469-40.363281 89.980469-89.980469 0-42.765625-30.414063-79.867187-72.316406-88.222656zm-17.664063 172.199219c-12.632812 0-25.164062-2.878906-36.457031-8.351563 3.984375-6.132812 7.824219-12.480469 11.453125-18.933593 7.867188 3.507812 16.265625 5.285156 25.003906 5.285156 34.175782 0 61.980469-27.804688 61.980469-61.980469 0-27.722656-18.953125-52.390625-45.457031-59.722656 1.292968-7.398438 2.359375-14.742188 3.175781-21.90625 37.441406 9 64.28125 42.820312 64.28125 81.628906 0 46.308594-37.675781 83.980469-83.980469 83.980469zm0 0" fill="#3a312a"/><path d="m355.335938 143.699219h-326.816407c-9.972656 0-17.917969 8.257812-17.640625 18.226562 3.007813 108.753907 58.320313 201.652344 113.417969 248.070313h137.804687c55.375-46.441406 107.933594-139.410156 110.890626-248.226563.265624-9.90625-7.75-18.070312-17.65625-18.070312zm0 0" fill="#8ac6dd"/><path d="m370.164062 146.960938c-3.929687-4.039063-9.195312-6.261719-14.828124-6.261719h-263.597657c-1.65625 0-3 1.339843-3 3 0 1.65625 1.34375 3 3 3h263.597657c4 0 7.738281 1.578125 10.527343 4.445312 2.773438 2.847657 4.238281 6.589844 4.128907 10.542969-3.140626 115.585938-60.472657 204.167969-108.984376 245.308594h-135.613281c-49.679687-42.292969-108.375-131.523438-111.515625-245.152344-.113281-4.035156 1.371094-7.84375 4.171875-10.722656 2.773438-2.851563 6.492188-4.421875 10.46875-4.421875h33.152344c1.65625 0 3-1.34375 3-3 0-1.660157-1.34375-3-3-3h-33.152344c-5.609375 0-10.859375 2.214843-14.773437 6.238281-3.9375 4.050781-6.023438 9.40625-5.867188 15.070312 3.210938 116.25 63.679688 207.480469 114.480469 250.28125.542969.457032 1.226563.707032 1.933594.707032h137.804687c.707032 0 1.386719-.25 1.929688-.703125 49.640625-41.632813 108.746094-132.207031 111.957031-250.441407.15625-5.585937-1.910156-10.875-5.820313-14.890624zm0 0" fill="#3a312a"/><path d="m65.316406 22.351562c-1.949218 23.128907-26.050781 26.78125-26.050781 26.78125 20.695313.972657 25.851563 28.117188 25.851563 28.117188.441406-19.355469 26.640624-28.402344 26.640624-28.402344-19.625-1.175781-26.441406-26.496094-26.441406-26.496094zm0 0" fill="#d7e057"/><path d="m91.9375 45.851562c-17.207031-1.03125-23.664062-24.050781-23.722656-24.28125-.382813-1.40625-1.699219-2.320312-3.167969-2.203124-1.453125.128906-2.597656 1.28125-2.71875 2.734374-1.722656 20.429688-22.628906 23.925782-23.507813 24.0625-1.527343.230469-2.628906 1.582032-2.546874 3.125.078124 1.539063 1.3125 2.765626 2.855468 2.839844 18.054688.851563 22.996094 25.4375 23.042969 25.683594.273437 1.421875 1.519531 2.433594 2.945313 2.433594.082031 0 .167968 0 .25-.007813 1.53125-.128906 2.714843-1.386719 2.75-2.917969.386718-17.015624 24.382812-25.554687 24.628906-25.636718 1.351562-.472656 2.183594-1.828125 1.988281-3.246094-.203125-1.417969-1.367187-2.5-2.796875-2.585938zm-27.128906 20.691407c-2.714844-6.261719-7.417969-13.816407-15.175782-17.753907 5.863282-2.808593 12.816407-7.824218 16.402344-16.546874 3.105469 6.144531 8.398438 13.761718 16.667969 17.445312-6.015625 3.28125-13.84375 8.808594-17.894531 16.855469zm0 0" fill="#3a312a"/><path d="m21.917969 56.3125c-1.375 16.359375-18.421875 18.945312-18.421875 18.945312 14.636718.6875 18.28125 19.886719 18.28125 19.886719.3125-13.6875 18.84375-20.089843 18.84375-20.089843-13.882813-.832032-18.703125-18.742188-18.703125-18.742188zm0 0" fill="#d7e057"/><path d="m40.804688 72.058594c-11.535157-.691406-15.949219-16.371094-15.992188-16.527344-.378906-1.40625-1.726562-2.324219-3.160156-2.207031-1.453125.132812-2.601563 1.289062-2.722656 2.738281-1.15625 13.742188-15.292969 16.132812-15.882813 16.226562-1.527344.230469-2.625 1.578126-2.546875 3.121094.082031 1.539063 1.316406 2.769532 2.855469 2.839844 12.070312.570312 15.449219 17.289062 15.476562 17.453125.273438 1.425781 1.519531 2.441406 2.945313 2.441406.082031 0 .167968-.003906.25-.011719 1.53125-.125 2.71875-1.386718 2.753906-2.917968.261719-11.417969 16.664062-17.269532 16.824219-17.324219 1.355469-.46875 2.1875-1.828125 1.992187-3.246094-.195312-1.417969-1.367187-2.5-2.792968-2.585937zm-19.171876 13.589844c-1.847656-3.773438-4.679687-7.894532-8.894531-10.5625 3.710938-2.082032 7.394531-5.257813 9.742188-9.832032 2.113281 3.746094 5.308593 7.910156 9.882812 10.449219-3.699219 2.199219-7.976562 5.480469-10.730469 9.945313zm0 0" fill="#3a312a"/><path d="m21.917969 2.996094c-1.375 16.359375-18.421875 18.945312-18.421875 18.945312 14.636718.6875 18.28125 19.886719 18.28125 19.886719.3125-13.6875 18.84375-20.089844 18.84375-20.089844-13.882813-.832031-18.703125-18.742187-18.703125-18.742187zm0 0" fill="#d7e057"/><path d="m40.804688 18.742188c-11.535157-.6875-15.949219-16.371094-15.992188-16.527344-.378906-1.40625-1.726562-2.320313-3.160156-2.2031252-1.453125.1289062-2.601563 1.2851562-2.722656 2.7343752-1.15625 13.742187-15.292969 16.132812-15.882813 16.226562-1.527344.230469-2.625 1.582032-2.546875 3.125.082031 1.539063 1.316406 2.765625 2.855469 2.839844 12.070312.570312 15.449219 17.289062 15.476562 17.453125.273438 1.425781 1.519531 2.4375 2.945313 2.4375.082031 0 .167968 0 .25-.007813 1.53125-.125 2.71875-1.386718 2.753906-2.921874.261719-11.417969 16.664062-17.265626 16.824219-17.324219 1.355469-.464844 2.1875-1.824219 1.992187-3.242188-.195312-1.421875-1.367187-2.503906-2.792968-2.589843zm-19.171876 13.589843c-1.847656-3.769531-4.679687-7.894531-8.894531-10.558593 3.710938-2.082032 7.394531-5.257813 9.742188-9.832032 2.113281 3.75 5.308593 7.910156 9.882812 10.449219-3.699219 2.199219-7.976562 5.480469-10.730469 9.941406zm0 0" fill="#3a312a"/><path d="m35.023438 410.140625c0 21.457031 17.394531 38.851563 38.851562 38.851563h270.921875c21.457031 0 38.851563-17.390626 38.851563-38.851563zm0 0" fill="#87796f"/><g fill="#3a312a"><path d="m383.652344 407.140625h-348.628906c-1.65625 0-3 1.34375-3 3 0 23.078125 18.777343 41.851563 41.851562 41.851563h178.699219c1.65625 0 3-1.339844 3-3 0-1.65625-1.34375-3-3-3h-178.699219c-18.757812 0-34.199219-14.476563-35.722656-32.851563h342.375c-1.527344 18.375-16.96875 32.851563-35.726563 32.851563h-63.703125c-1.65625 0-3 1.34375-3 3 0 1.660156 1.34375 3 3 3h63.703125c23.078125 0 41.851563-18.773438 41.851563-41.851563 0-1.65625-1.34375-3-3-3zm0 0"/><path d="m152.414062 121.625c-4.730468-4.730469-7.320312-11.015625-7.296874-17.707031.027343-6.691407 2.664062-12.957031 7.429687-17.652344 5.878906-5.796875 9.152344-13.535156 9.210937-21.792969.0625-8.253906-3.097656-16.039062-8.894531-21.921875l-.867187-.882812c-9.570313-9.710938-9.515625-25.457031.117187-35.089844l.144531-.140625c1.175782-1.167969 1.183594-3.066406.015626-4.242188-1.167969-1.175781-3.070313-1.183593-4.242188-.015624l-.148438.148437c-11.964843 11.964844-12.039062 31.503906-.15625 43.554687l.867188.882813c4.671875 4.738281 7.214844 11.011719 7.167969 17.667969-.046875 6.652344-2.6875 12.886718-7.425781 17.558594-5.914063 5.824218-9.1875 13.605468-9.214844 21.902343-.03125 8.300781 3.183594 16.101563 9.050781 21.96875l.488281.492188c.585938.585937 1.355469.878906 2.125.878906.769532 0 1.535156-.289063 2.121094-.875 1.171875-1.167969 1.171875-3.070313.003906-4.242187zm0 0"/><path d="m192.667969 121.625c-4.730469-4.730469-7.320313-11.015625-7.296875-17.707031.027344-6.691407 2.664062-12.957031 7.429687-17.652344 5.878907-5.796875 9.152344-13.535156 9.210938-21.792969.0625-8.253906-3.097657-16.039062-8.894531-21.921875l-.867188-.882812c-9.570312-9.710938-9.515625-25.457031.136719-35.105469l.136719-.140625c1.167968-1.175781 1.089843-3-.082032-4.167969-1.167968-1.167968-3.132812-1.097656-4.304687.074219-11.964844 11.964844-12.039063 31.5-.160157 43.554687l.871094.878907c4.667969 4.738281 7.214844 11.015625 7.164063 17.667969-.046875 6.652343-2.683594 12.890624-7.425781 17.558593-5.910157 5.828125-9.183594 13.605469-9.214844 21.90625s3.1875 16.101563 9.050781 21.96875l.492187.492188c.585938.585937 1.351563.878906 2.121094.878906.769532 0 1.535156-.292969 2.121094-.875 1.171875-1.171875 1.175781-3.070313.003906-4.242187zm0 0"/><path d="m230.246094 121.625c-4.726563-4.730469-7.320313-11.015625-7.292969-17.707031.023437-6.691407 2.660156-12.957031 7.425781-17.652344 5.878906-5.796875 9.152344-13.535156 9.214844-21.792969.058594-8.253906-3.101562-16.039062-8.894531-21.921875l-.871094-.882812c-9.570313-9.710938-9.511719-25.457031.136719-35.105469l.136718-.144531c1.167969-1.171875 1.089844-3-.082031-4.167969-1.167969-1.164062-3.132812-1.097656-4.304687.074219-11.964844 11.964843-12.039063 31.5-.160156 43.550781l.871093.886719c4.667969 4.738281 7.214844 11.011719 7.167969 17.667969-.046875 6.652343-2.6875 12.886718-7.425781 17.558593-5.914063 5.824219-9.1875 13.605469-9.214844 21.902344-.03125 8.300781 3.183594 16.101563 9.050781 21.96875l.488282.492187c.585937.585938 1.355468.878907 2.125.878907.769531 0 1.535156-.289063 2.121093-.875 1.171875-1.167969 1.171875-3.070313.003907-4.242188zm0 0"/><path d="m270.5 121.625c-4.726562-4.730469-7.320312-11.015625-7.292969-17.707031.023438-6.691407 2.660157-12.957031 7.425781-17.652344 5.878907-5.796875 9.152344-13.535156 9.214844-21.792969.058594-8.253906-3.101562-16.039062-8.894531-21.921875l-.871094-.882812c-9.570312-9.710938-9.515625-25.457031.121094-35.089844l.140625-.140625c1.175781-1.167969 1.183594-3.070312.015625-4.246094-1.164063-1.171875-3.0625-1.179687-4.242187-.011718l-.148438.148437c-11.964844 11.964844-12.039062 31.5-.160156 43.550781l.871094.882813c4.671874 4.738281 7.21875 11.015625 7.167968 17.667969-.046875 6.652343-2.6875 12.890624-7.425781 17.558593-5.914063 5.828125-9.183594 13.605469-9.210937 21.90625-.035157 8.300781 3.183593 16.101563 9.046874 21.96875l.492188.492188c.585938.585937 1.351562.878906 2.121094.878906.769531 0 1.535156-.292969 2.121094-.875 1.171874-1.171875 1.175781-3.070313.003906-4.242187zm0 0"/></g><path d="m170.179688 205.328125-13.34375-18.542969c-2.433594-3.386718-6.351563-5.390625-10.519532-5.390625h-39.632812c-4.089844 0-7.9375 1.929688-10.382813 5.207031l-13.9375 18.671876c-1.671875 2.238281-2.574219 4.957031-2.574219 7.753906v75.945312c0 7.15625 5.800782 12.960938 12.960938 12.960938h66.914062c7.15625 0 12.957032-5.804688 12.957032-12.960938v-76.074218c0-2.714844-.851563-5.363282-2.441406-7.570313zm-43.976563 15.832031c-5.246094 0-9.5-4.253906-9.5-9.5s4.253906-9.5 9.5-9.5 9.5 4.253906 9.5 9.5c0 5.25-4.25 9.5-9.5 9.5zm0 0" fill="#f16c7a"/><path d="m126.203125 199.160156c-6.890625 0-12.5 5.609375-12.5 12.5 0 6.894532 5.609375 12.5 12.5 12.5 6.894531 0 12.5-5.605468 12.5-12.5 0-6.890625-5.605469-12.5-12.5-12.5zm0 19c-3.582031 0-6.5-2.914062-6.5-6.5 0-3.582031 2.917969-6.5 6.5-6.5 3.585937 0 6.5 2.917969 6.5 6.5 0 3.585938-2.914063 6.5-6.5 6.5zm46.414063-14.585937-13.347657-18.542969c-2.992187-4.15625-7.832031-6.636719-12.953125-6.636719h-39.632812c-5.007813 0-9.789063 2.398438-12.789063 6.410157l-13.9375 18.671874c-2.042969 2.738282-3.171875 6.128907-3.171875 9.546876v75.949218c0 8.800782 7.160156 15.957032 15.960938 15.957032h66.914062c8.800782 0 15.957032-7.160157 15.957032-15.957032v-76.074218c.003906-3.363282-1.035157-6.585938-3-9.324219zm-2.996094 85.398437c0 5.492188-4.464844 9.957032-9.957032 9.957032h-66.914062c-5.492188 0-9.957031-4.46875-9.957031-9.957032v-75.949218c0-2.132813.703125-4.25 1.976562-5.957032l13.9375-18.671875c1.871094-2.503906 4.855469-4 7.980469-4h39.628906c3.195313 0 6.214844 1.546875 8.082032 4.140625l13.347656 18.546875c1.230468 1.707031 1.875 3.71875 1.875 5.816407zm0 0" fill="#3a312a"/><path d="m126.203125 140.660156c-1.652344 0-3 1.34375-3 3v66c0 1.660156 1.347656 3 3 3 1.65625 0 3-1.339844 3-3v-66c0-1.652344-1.34375-3-3-3zm0 0" fill="#3a312a"/><path d="m365.863281 151.15625c-2.796875-2.878906-6.539062-4.460938-10.539062-4.460938h-31.878907c4 0 7.738282 1.582032 10.539063 4.460938 2.761719 2.839844 4.242187 6.578125 4.121094 10.539062-3.140625 115.582032-60.460938 204.160157-108.980469 245.300782h31.878906c48.519532-41.140625 105.839844-129.71875 108.980469-245.300782.121094-3.960937-1.359375-7.699218-4.121094-10.539062zm0 0" fill="#68a8bc"/><path d="m349.125 413.136719c-1.519531 18.378906-16.960938 32.859375-35.71875 32.859375h31.398438c18.761718 0 34.199218-14.480469 35.71875-32.859375zm0 0" fill="#6b5b51"/></svg>