<svg height="453pt" viewBox="0 0 453 453.02912" width="453pt" xmlns="http://www.w3.org/2000/svg"><path d="m441.230469 299.324219-65.507813-169.929688c-8.679687-22.671875-32.90625-35.03125-56.363281-28.742187l-66.035156 17.703125c-7.71875 2.066406-12.296875 10-10.226563 17.71875 2.066406 7.71875 10 12.292969 17.71875 10.226562l66.035156-17.707031c9.089844-2.433594 18.488282 2.355469 21.855469 11.148438l65.503907 169.929687c2.207031 5.761719 7.695312 9.296875 13.511718 9.296875 1.722656 0 3.46875-.308594 5.171875-.960938 7.460938-2.859374 11.191407-11.222656 8.335938-18.683593zm0 0" fill="#87796f"/><path d="m444.027344 298.246094-65.503906-169.925782c-9.230469-24.113281-35-37.257812-59.9375-30.570312l-66.039063 17.707031c-4.507813 1.207031-8.273437 4.097657-10.605469 8.136719-2.332031 4.039062-2.949218 8.746094-1.742187 13.25 1.210937 4.507812 4.097656 8.273438 8.140625 10.605469 4.039062 2.332031 8.746094 2.953125 13.25 1.742187l66.039062-17.703125c7.605469-2.027343 15.460938 1.96875 18.277344 9.328125l65.503906 169.925782c2.570313 6.714843 9.125 11.222656 16.3125 11.222656 2.136719 0 4.238282-.390625 6.242188-1.160156 4.359375-1.667969 7.804687-4.933594 9.707031-9.195313 1.898437-4.257813 2.027344-9.003906.355469-13.363281zm-5.835938 10.921875c-1.246094 2.796875-3.511718 4.941406-6.371094 6.039062-1.316406.503907-2.695312.761719-4.097656.761719-4.714844 0-9.019531-2.960938-10.710937-7.378906l-65.503907-169.925782c-3.230468-8.433593-11.230468-13.703124-19.871093-13.703124-1.839844 0-3.703125.234374-5.558594.734374l-66.042969 17.703126c-2.957031.796874-6.042968.390624-8.699218-1.144532-2.652344-1.527344-4.546876-4-5.339844-6.960937-.792969-2.957031-.386719-6.046875 1.140625-8.699219 1.535156-2.652344 4.003906-4.550781 6.964843-5.34375l66.035157-17.703125c21.960937-5.882813 44.65625 5.683594 52.789062 26.925781l65.503907 169.925782c1.09375 2.859374 1.007812 5.976562-.238282 8.769531zm0 0" fill="#3a312a"/><path d="m172.703125 128.582031c-93.714844 0-169.6875 68.132813-169.6875 152.175781 0 14.855469 2.375 29.210938 6.800781 42.785157 18.285156 56.0625 71.714844 93.148437 130.683594 93.148437h64.40625c58.96875 0 112.402344-37.085937 130.683594-93.148437 4.425781-13.574219 6.800781-27.933594 6.800781-42.785157-.003906-84.046874-75.972656-152.175781-169.6875-152.175781zm0 0" fill="#fce8cb"/><path d="m172.703125 125.582031c-95.21875 0-172.6875 69.609375-172.6875 155.175781 0 14.871094 2.339844 29.578126 6.949219 43.714844 18.574218 56.953125 72.238281 95.21875 133.535156 95.21875h64.40625c61.296875 0 114.960938-38.265625 133.539062-95.21875 4.609376-14.136718 6.945313-28.84375 6.945313-43.714844-.003906-85.566406-77.46875-155.175781-172.6875-155.175781zm160.035156 197.027344c-17.769531 54.480469-69.140625 91.082031-127.832031 91.082031h-64.40625c-58.695312 0-110.066406-36.601562-127.832031-91.082031-4.414063-13.535156-6.652344-27.617187-6.652344-41.851563 0-82.257812 74.777344-149.175781 166.6875-149.175781s166.683594 66.917969 166.683594 149.175781c0 14.238282-2.234375 28.320313-6.648438 41.851563zm0 0" fill="#3a312a"/><path d="m339.925781 255.03125h-334.445312c-1.59375 8.367188-2.464844 16.953125-2.464844 25.722656 0 14.855469 2.371094 29.214844 6.800781 42.785156 18.28125 56.066407 71.710938 93.152344 130.683594 93.152344h64.40625c58.96875 0 112.398438-37.089844 130.683594-93.152344 4.425781-13.570312 6.796875-27.929687 6.796875-42.785156 0-8.769531-.871094-17.355468-2.460938-25.722656zm0 0" fill="#87796f"/><path d="m342.871094 254.472656c-.265625-1.414062-1.507813-2.441406-2.945313-2.441406h-70.976562c-1.660157 0-3 1.34375-3 3 0 1.660156 1.339843 3 3 3h68.46875c1.304687 7.613281 1.96875 15.246094 1.96875 22.726562 0 14.238282-2.238281 28.320313-6.652344 41.851563-17.765625 54.480469-69.136719 91.082031-127.832031 91.082031h-64.402344c-58.695312 0-110.066406-36.601562-127.832031-91.082031-4.414063-13.535156-6.652344-27.617187-6.652344-41.851563 0-7.476562.664063-15.109374 1.96875-22.726562h230.859375c1.65625 0 3-1.339844 3-3 0-1.65625-1.34375-3-3-3h-233.363281c-1.445313 0-2.679688 1.027344-2.949219 2.441406-1.671875 8.789063-2.515625 17.632813-2.515625 26.285156 0 14.871094 2.335937 29.578126 6.945313 43.714844 18.574218 56.953125 72.238281 95.21875 133.539062 95.21875h64.40625c61.296875 0 114.960938-38.265625 133.535156-95.21875 4.609375-14.136718 6.945313-28.84375 6.945313-43.714844 0-8.660156-.84375-17.5-2.515625-26.285156zm0 0" fill="#3a312a"/><path d="m263.320312 104.960938h-181.234374c-6.566407 0-11.886719 5.320312-11.886719 11.886718v21.359375c0 6.5625 5.320312 11.886719 11.886719 11.886719h181.234374c6.5625 0 11.882813-5.320312 11.882813-11.886719v-21.359375c.003906-6.566406-5.320313-11.886718-11.882813-11.886718zm0 0" fill="#d7e057"/><path d="m263.320312 101.960938h-181.234374c-8.207032 0-14.886719 6.679687-14.886719 14.886718v21.359375c0 8.207031 6.679687 14.886719 14.886719 14.886719h181.234374c8.207032 0 14.886719-6.679688 14.886719-14.886719v-21.359375c0-8.207031-6.679687-14.886718-14.886719-14.886718zm8.886719 36.246093c0 4.898438-3.988281 8.886719-8.886719 8.886719h-181.234374c-4.898438 0-8.886719-3.988281-8.886719-8.886719v-21.359375c0-4.902344 3.988281-8.886718 8.886719-8.886718h181.234374c4.898438 0 8.886719 3.984374 8.886719 8.886718zm0 0" fill="#3a312a"/><path d="m258.707031 70.746094-110.324219-16.191406-29.554687-4.335938-87.226563-12.800781c-3.898437-.570313-6.304687 4.125-3.5625 6.957031l58.71875 60.585938h175.476563v-30.132813c0-2.046875-1.5-3.785156-3.527344-4.082031zm0 0" fill="#f16c7a"/><path d="m259.144531 67.777344-110.324219-16.191406c-1.636718-.25-3.164062.894531-3.40625 2.53125-.242187 1.640624.890626 3.164062 2.53125 3.40625l110.328126 16.191406c.550781.082031.960937.558594.960937 1.113281v27.132813h-171.207031l-57.832032-59.675782c-.488281-.503906-.332031-1.03125-.195312-1.296875s.472656-.691406 1.164062-.601562l87.226563 12.800781c1.628906.246094 3.164063-.894531 3.40625-2.53125.242187-1.640625-.890625-3.164062-2.53125-3.40625l-87.230469-12.800781c-3.070312-.449219-5.960937 1.042969-7.375 3.800781-1.414062 2.761719-.933594 5.984375 1.222656 8.210938l58.71875 60.585937c.566407.585937 1.339844.914063 2.152344.914063h175.480469c1.65625 0 3-1.34375 3-3v-30.132813c0-3.507813-2.617187-6.539063-6.089844-7.050781zm0 0" fill="#3a312a"/><path d="m422.660156 22.355469c-1.949218 23.128906-26.046875 26.777343-26.046875 26.777343 20.691407.972657 25.847657 28.117188 25.847657 28.117188.445312-19.351562 26.644531-28.402344 26.644531-28.402344-19.628907-1.175781-26.445313-26.492187-26.445313-26.492187zm0 0" fill="#d7e057"/><path d="m449.285156 45.851562c-17.210937-1.027343-23.667968-24.046874-23.730468-24.28125-.378907-1.40625-1.730469-2.328124-3.164063-2.203124-1.449219.132812-2.597656 1.285156-2.71875 2.734374-1.71875 20.429688-22.625 23.925782-23.507813 24.066407-1.527343.230469-2.625 1.578125-2.546874 3.121093.082031 1.539063 1.316406 2.769532 2.855468 2.84375 18.058594.847657 23 25.433594 23.046875 25.683594.273438 1.421875 1.515625 2.433594 2.941407 2.433594.085937 0 .167968-.003906.253906-.011719 1.527344-.128906 2.714844-1.386719 2.75-2.917969.386718-17.015624 24.382812-25.554687 24.625-25.636718 1.351562-.46875 2.183594-1.828125 1.988281-3.246094-.199219-1.417969-1.367187-2.5-2.792969-2.585938zm-27.132812 20.695313c-2.710938-6.261719-7.417969-13.816406-15.171875-17.753906 5.859375-2.808594 12.816406-7.824219 16.402343-16.542969 3.101563 6.140625 8.398438 13.757812 16.667969 17.441406-6.015625 3.28125-13.847656 8.808594-17.898437 16.855469zm0 0" fill="#3a312a"/><path d="m379.265625 56.316406c-1.378906 16.359375-18.425781 18.941406-18.425781 18.941406 14.636718.6875 18.285156 19.886719 18.285156 19.886719.3125-13.6875 18.84375-20.089843 18.84375-20.089843-13.882812-.828126-18.703125-18.738282-18.703125-18.738282zm0 0" fill="#d7e057"/><path d="m398.148438 72.058594c-11.535157-.691406-15.945313-16.371094-15.988282-16.527344-.382812-1.402344-1.714844-2.34375-3.164062-2.203125-1.453125.128906-2.597656 1.28125-2.722656 2.734375-1.15625 13.742188-15.289063 16.132812-15.882813 16.226562-1.527344.230469-2.625 1.578126-2.546875 3.121094.082031 1.539063 1.316406 2.769532 2.855469 2.84375 12.070312.566406 15.449219 17.289063 15.476562 17.453125.269531 1.425781 1.519531 2.4375 2.945313 2.4375.082031 0 .164062 0 .25-.007812 1.53125-.128907 2.714844-1.390625 2.75-2.921875.261718-11.417969 16.664062-17.269532 16.828125-17.324219 1.351562-.46875 2.1875-1.828125 1.992187-3.246094-.195312-1.414062-1.363281-2.5-2.792968-2.585937zm-19.171876 13.589844c-1.847656-3.769532-4.679687-7.894532-8.894531-10.558594 3.710938-2.082032 7.394531-5.257813 9.742188-9.832032 2.113281 3.746094 5.308593 7.910157 9.882812 10.449219-3.699219 2.199219-7.976562 5.476563-10.730469 9.941407zm0 0" fill="#3a312a"/><path d="m379.265625 3c-1.378906 16.359375-18.425781 18.941406-18.425781 18.941406 14.636718.6875 18.285156 19.886719 18.285156 19.886719.3125-13.6875 18.84375-20.089844 18.84375-20.089844-13.882812-.828125-18.703125-18.738281-18.703125-18.738281zm0 0" fill="#d7e057"/><path d="m398.148438 18.746094c-11.535157-.691406-15.945313-16.371094-15.988282-16.53125-.378906-1.402344-1.710937-2.328125-3.164062-2.2031252-1.453125.1289062-2.597656 1.2851562-2.71875 2.7343752-1.160156 13.742187-15.292969 16.136718-15.886719 16.230468-1.523437.230469-2.625 1.578126-2.542969 3.121094.078125 1.539063 1.3125 2.765625 2.855469 2.839844 12.070313.570312 15.445313 17.289062 15.476563 17.453125.269531 1.425781 1.519531 2.441406 2.945312 2.441406.082031 0 .164062-.003906.25-.011719 1.53125-.125 2.714844-1.386718 2.75-2.921874.261719-11.417969 16.664062-17.265626 16.828125-17.324219 1.351563-.46875 2.1875-1.824219 1.992187-3.242188-.199218-1.417969-1.367187-2.5-2.796874-2.585937zm-19.171876 13.589844c-1.847656-3.769532-4.679687-7.894532-8.894531-10.5625 3.710938-2.082032 7.394531-5.257813 9.742188-9.832032 2.113281 3.75 5.308593 7.910156 9.882812 10.449219-3.699219 2.203125-7.976562 5.480469-10.730469 9.945313zm0 0" fill="#3a312a"/><path d="m240.402344 415.226562h-132.199219c-19.222656 0-34.804687 15.582032-34.804687 34.800782h201.804687c.003906-19.21875-15.582031-34.800782-34.800781-34.800782zm0 0" fill="#f16c7a"/><path d="m240.402344 412.226562h-132.199219c-20.84375 0-37.800781 16.957032-37.800781 37.800782 0 1.660156 1.339844 3 3 3h201.804687c1.65625 0 3-1.339844 3-3 0-20.84375-16.960937-37.800782-37.804687-37.800782zm-163.863282 34.800782c1.515626-16.132813 15.140626-28.800782 31.664063-28.800782h132.199219c16.527344 0 30.148437 12.667969 31.664062 28.800782zm0 0" fill="#3a312a"/><path d="m258.855469 153.089844h-28.160157c39.460938 21.421875 68.242188 57.082031 77.402344 98.941406h28.160156c-9.160156-41.859375-37.941406-77.519531-77.402343-98.941406zm0 0" fill="#ccae8b"/><path d="m337.417969 258.03125h-28.140625c1.300781 7.621094 1.960937 15.238281 1.960937 22.71875 0 14.242188-2.242187 28.320312-6.660156 41.859375-15.703125 48.160156-57.679687 82.339844-107.761719 89.621094h28.160156c50.078126-7.28125 92.058594-41.460938 107.761719-89.621094 4.417969-13.539063 6.660157-27.617187 6.660157-41.859375 0-7.480469-.660157-15.097656-1.980469-22.71875zm0 0" fill="#6b5b51"/><path d="m263.316406 107.949219h-28.160156c4.921875 0 8.898438 4 8.898438 8.902343v21.359376c0 4.898437-3.976563 8.878906-8.898438 8.878906h28.160156c4.898438 0 8.878906-3.980469 8.878906-8.878906v-21.359376c0-4.902343-3.980468-8.902343-8.878906-8.902343zm0 0" fill="#b9bc39"/><g fill="#ce4e61"><path d="m258.277344 73.710938-26.714844-3.917969v32.15625h27.675781v-27.117188c0-.5625-.421875-1.039062-.960937-1.121093zm0 0"/><path d="m240.398438 418.230469h-28.140626c16.519532 0 30.140626 12.660156 31.660157 28.800781h28.136719c-1.5-16.140625-15.117188-28.800781-31.65625-28.800781zm0 0"/></g></svg>